<?xml version="1.0" encoding="utf-8"?>
<!-- Generator: Adobe Illustrator 15.1.0, SVG Export Plug-In . SVG Version: 6.00 Build 0)  -->
<!DOCTYPE svg PUBLIC "-//W3C//DTD SVG 1.1//EN" "http://www.w3.org/Graphics/SVG/1.1/DTD/svg11.dtd">
<svg version="1.1" id="Layer_1" xmlns="http://www.w3.org/2000/svg" xmlns:xlink="http://www.w3.org/1999/xlink" x="0px" y="0px"
	 width="154.833px" height="45.167px" viewBox="0 0 154.833 45.167" enable-background="new 0 0 154.833 45.167"
	 xml:space="preserve">
<g>
	<g>
		<path fill="#008658" d="M36.178,4.456c-3.321,0-5.932,1.214-7.755,3.083c-2.332,2.379-3.502,5.837-3.502,9.721
			c0,3.982,1.312,7.389,3.739,9.726c1.916,1.819,4.338,2.986,7.658,2.986c3.087,0,6.121-0.981,8.172-3.404
			c0.916-1.101,1.882-2.983,2.042-4.408h-5.519c-0.24,0.88-0.663,1.534-1.176,2.049c-0.859,0.857-1.917,1.191-3.614,1.191
			c-1.615,0-2.803-0.716-3.658-1.521c-1.146-1.104-1.803-2.821-1.804-4.644c0-0.063,0.001-0.128,0.004-0.192l0-0.057h16.339
			c0.004-0.542,0.048-1.583,0.048-1.583c0.007-0.257,0.01-0.51,0.01-0.763c0-2.749-0.488-5.265-2.114-7.702
			C43.042,5.906,39.778,4.456,36.178,4.456z M30.716,14.832v-0.06c0.048-1.604,0.426-2.75,1.282-3.836
			c0.856-1.145,2.331-1.905,4.133-1.905c1.704,0,2.941,0.57,3.754,1.431c0.952,1.044,1.472,2.47,1.519,4.311l0.003,0.06H30.716z"/>
		<path fill="#008658" d="M13.462,4.456c-2.802,0-5.691,1.17-7.133,3.728L6.216,8.387V5.068H0.985v24.294h5.747V18.833
			c0-1.934,0.036-4.167,0.801-5.915c0.803-1.8,2.19-3.139,4.284-3.139c1.562,0,2.593,0.442,3.23,1.252
			c0.635,0.81,0.868,1.975,0.87,3.415v14.916h5.748v-16.23C21.663,8.083,18.644,4.459,13.462,4.456z"/>
		<path fill="#008658" d="M65.674,17.922c0,1.975-0.373,4.2-1.798,5.535c-0.715,0.717-1.672,1.24-3.049,1.24
			c-1.563,0-2.639-0.45-3.323-1.274c-0.682-0.822-0.964-1.997-0.964-3.437V5.068h-5.75V21.3c0.006,5.186,3.208,8.672,8.393,8.672
			c3.081,0,5.898-1.372,7.058-3.739v5.071l5.184-4.103V5.068h-5.749V17.922z"/>
		<path fill="#008658" d="M87.007,14.733c-0.914-0.122-1.667-0.208-3.002-0.377c-1.32-0.185-2.871-0.725-2.871-2.55
			c0-1.074,0.767-1.647,1.499-2.069c0.744-0.427,1.845-0.593,2.955-0.593c0.001,0,0.007,0,0.01,0
			c2.384,0.002,4.004,1.007,5.125,2.276l0.154,0.174l4.026-3.206c-0.043-0.063-0.089-0.118-0.13-0.175
			c-0.026-0.037-0.052-0.077-0.078-0.113L94.65,8.048c-0.127-0.167-0.26-0.326-0.399-0.479c-0.123-0.133-0.252-0.263-0.38-0.388
			c-2.048-1.94-5.078-2.722-7.999-2.722c-2.489,0-5.009,0.603-6.924,1.85c-1.475,0.961-2.58,2.321-3.011,4.065
			c-0.117,0.466-0.182,0.959-0.196,1.48c-0.004,0.073-0.018,0.288-0.018,0.545c0,0.05,0,0.101,0.001,0.153
			c0.01,0.324,0.048,0.688,0.077,0.858c0.439,2.618,2.524,4.808,5.451,5.427c0.16,0.033,0.325,0.067,0.489,0.098L87.007,14.733z"/>
		<g>
			<linearGradient id="SVGID_1_" gradientUnits="userSpaceOnUse" x1="154.2109" y1="27.5376" x2="121.5164" y2="-13.4391">
				<stop  offset="0" style="stop-color:#008658"/>
				<stop  offset="0.7527" style="stop-color:#008658"/>
				<stop  offset="0.7834" style="stop-color:#008D56"/>
				<stop  offset="0.8469" style="stop-color:#409F50"/>
				<stop  offset="0.937" style="stop-color:#A4C43C"/>
				<stop  offset="1" style="stop-color:#EEE809"/>
			</linearGradient>
			<path fill="url(#SVGID_1_)" d="M151.178,4.74c-2.847,0-5.847,1.142-6.961,3.929V5.068h-5.372v24.294h5.795V17.123
				c0-1.981,0.545-3.723,1.611-4.973c1.066-1.246,2.657-1.993,4.74-1.993c0.642,0,1.317,0.087,1.958,0.221V4.873
				C152.358,4.785,151.769,4.74,151.178,4.74z"/>
			<linearGradient id="SVGID_2_" gradientUnits="userSpaceOnUse" x1="129.4189" y1="47.3198" x2="96.724" y2="6.3426">
				<stop  offset="0" style="stop-color:#008658"/>
				<stop  offset="0.7527" style="stop-color:#008658"/>
				<stop  offset="0.7834" style="stop-color:#008D56"/>
				<stop  offset="0.8469" style="stop-color:#409F50"/>
				<stop  offset="0.937" style="stop-color:#A4C43C"/>
				<stop  offset="1" style="stop-color:#EEE809"/>
			</linearGradient>
			<path fill="url(#SVGID_2_)" d="M105.314,23.809c-0.464-0.451-0.678-1.142-0.678-2.087V12.27h6.151V7.557h-6.151v-6.89
				l-5.746,4.589v16.981c0.008,4.678,2.404,7.448,7.312,7.452c1.714,0,3.335-0.228,4.962-0.642v-4.814
				c-1.561,0.181-2.536,0.227-3.743,0.227C106.475,24.46,105.777,24.258,105.314,23.809z"/>
		</g>
		<g>
			<linearGradient id="SVGID_3_" gradientUnits="userSpaceOnUse" x1="114.5166" y1="59.2075" x2="81.8229" y2="18.2318">
				<stop  offset="0" style="stop-color:#008658"/>
				<stop  offset="0.7527" style="stop-color:#008658"/>
				<stop  offset="0.7834" style="stop-color:#008D56"/>
				<stop  offset="0.8469" style="stop-color:#409F50"/>
				<stop  offset="0.937" style="stop-color:#A4C43C"/>
				<stop  offset="1" style="stop-color:#EEE809"/>
			</linearGradient>
			<path fill="url(#SVGID_3_)" d="M89.217,15.056c-0.53-0.08-0.971-0.145-1.36-0.204c-0.125-0.018-0.245-0.035-0.363-0.051
				c-0.09-0.012-0.18-0.024-0.267-0.037c-0.075-0.009-0.147-0.019-0.22-0.028l-5.262,4.197c0.087,0.017,0.175,0.037,0.262,0.052
				c0.043,0.009,0.088,0.015,0.131,0.022c1.925,0.339,4,0.481,5.877,0.769c1.408,0.215,2.51,1.005,2.51,2.24
				c0,1.089-0.719,1.688-1.211,2.015c-0.671,0.446-1.361,0.688-1.936,0.828c-0.688,0.169-1.512,0.199-2.109,0.199
				c-0.983,0-1.78-0.135-2.408-0.312c-1.911-0.541-3.67-1.965-4.543-3.071l-4.093,3.272c0.314,0.424,1.646,1.981,3.435,2.999
				c2.532,1.441,4.864,1.995,7.278,1.995c2.68,0,5.297-0.475,7.349-1.712c2.01-1.213,3.479-3.132,3.523-5.815
				c0.009-0.174,0.022-0.339,0.022-0.513C95.832,18.082,93.049,15.67,89.217,15.056z"/>
		</g>
		<linearGradient id="SVGID_4_" gradientUnits="userSpaceOnUse" x1="140.8311" y1="38.2124" x2="108.1374" y2="-2.7632">
			<stop  offset="0" style="stop-color:#008658"/>
			<stop  offset="0.7527" style="stop-color:#008658"/>
			<stop  offset="0.7834" style="stop-color:#008D56"/>
			<stop  offset="0.8469" style="stop-color:#409F50"/>
			<stop  offset="0.937" style="stop-color:#A4C43C"/>
			<stop  offset="1" style="stop-color:#EEE809"/>
		</linearGradient>
		<path fill="url(#SVGID_4_)" d="M134.026,9.41c-1.402-3.646-4.955-4.955-9.113-4.955c-5.393,0-9.721,2.407-10.09,7.814h5.658
			c0.176-2.188,1.757-3.374,4.432-3.374c3.317,0,4.111,1.542,4.111,3.832v1.497l-7.148,0.512c-4.626,0.327-8.225,2.993-8.225,7.619
			c0,0.36,0.022,0.719,0.072,1.071c0.495,3.535,3.443,6.547,8.712,6.547c0.127,0,0.375-0.013,0.375-0.013
			c3.069-0.224,5.377-1.831,6.214-3.634v3.035h5.702V14.317C134.727,12.682,134.633,10.952,134.026,9.41z M129.024,19.691
			c0,3.598-2.569,5.562-6.214,5.562c-1.822,0-3.459-1.169-3.459-3.039c0-1.962,1.729-3.037,3.505-3.177l6.168-0.469V19.691z"/>
		<path fill="#008658" d="M150.641,24.667c-1.322,0-2.306,1.041-2.306,2.352c0,1.31,0.983,2.344,2.306,2.344
			c1.326,0,2.309-1.04,2.309-2.353C152.949,25.703,151.967,24.667,150.641,24.667z M150.641,28.955
			c-1.129,0-1.878-0.818-1.878-1.937c0-1.116,0.749-1.944,1.878-1.944c1.132,0,1.88,0.819,1.88,1.936
			C152.521,28.129,151.772,28.955,150.641,28.955z M151.61,26.519c0-0.498-0.4-0.769-0.867-0.769h-0.902v2.45h0.43v-0.902h0.479
			l0.409,0.902h0.467l-0.455-0.974C151.471,27.094,151.61,26.837,151.61,26.519z M150.743,26.903h-0.48v-0.757h0.48
			c0.23,0,0.422,0.123,0.422,0.373C151.165,26.787,150.999,26.903,150.743,26.903z"/>
	</g>
	<g>
		<path fill="#58595B" d="M4.814,42.683L3.541,39.88H1.679v2.803H0.833v-6.736h2.641c0.79,0,1.34,0.219,1.711,0.6
			c0.323,0.341,0.532,0.779,0.532,1.366c0,0.59-0.19,0.989-0.513,1.332c-0.2,0.209-0.485,0.369-0.808,0.474l1.349,2.965H4.814z
			 M3.474,36.726H1.679v2.366h1.795c0.799,0,1.369-0.322,1.369-1.18C4.842,37.059,4.272,36.726,3.474,36.726z"/>
		<path fill="#58595B" d="M10.829,40.546H7.428c0,0.436,0.171,0.911,0.465,1.205c0.219,0.22,0.514,0.344,0.884,0.344
			c0.38,0,0.694-0.105,0.893-0.314c0.133-0.134,0.219-0.267,0.285-0.522h0.789c-0.066,0.475-0.352,0.921-0.741,1.188
			c-0.342,0.229-0.769,0.36-1.226,0.36c-0.674,0-1.226-0.284-1.596-0.722c-0.399-0.465-0.599-1.103-0.599-1.786
			c0-0.58,0.104-1.093,0.37-1.538c0.343-0.58,0.979-1.009,1.815-1.009c0.617,0,1.112,0.238,1.463,0.618
			c0.389,0.428,0.618,1.045,0.608,1.691L10.829,40.546z M9.717,38.875c-0.199-0.268-0.522-0.439-0.95-0.439
			c-0.875,0-1.301,0.713-1.321,1.417h2.565C10.012,39.491,9.908,39.129,9.717,38.875z"/>
		<path fill="#58595B" d="M15.694,42.75c-0.427,0-0.693-0.323-0.693-0.731h-0.019c-0.275,0.485-0.874,0.788-1.548,0.788
			c-1.103,0-1.653-0.74-1.653-1.481c0-0.618,0.399-1.425,1.71-1.501l1.463-0.086v-0.352c0-0.238-0.029-0.532-0.247-0.731
			c-0.162-0.152-0.399-0.246-0.789-0.246c-0.437,0-0.712,0.122-0.874,0.284c-0.152,0.152-0.237,0.342-0.237,0.58h-0.789
			c0.009-0.438,0.171-0.751,0.417-1.008c0.323-0.342,0.894-0.514,1.482-0.514c0.932,0,1.463,0.4,1.691,0.923
			c0.095,0.218,0.143,0.465,0.143,0.74v2.328c0,0.257,0.104,0.323,0.266,0.323c0.085,0,0.208-0.028,0.208-0.028v0.599
			C16.056,42.721,15.894,42.75,15.694,42.75z M14.954,40.366l-1.293,0.076c-0.484,0.028-1.054,0.256-1.054,0.863
			c0,0.428,0.266,0.827,0.95,0.827c0.371,0,0.732-0.124,0.988-0.39c0.285-0.295,0.409-0.693,0.409-1.093V40.366z"/>
		<path fill="#58595B" d="M18.489,42.74c-0.703,0-1.007-0.418-1.007-1.178v-5.739h0.808v5.691c0,0.323,0.104,0.494,0.437,0.494
			c0.266,0,0.333-0.009,0.333-0.009v0.684C19.06,42.683,18.878,42.74,18.489,42.74z"/>
		<path fill="#58595B" d="M22.367,42.683v-6.736h1.244v6.736H22.367z"/>
		<path fill="#58595B" d="M28.163,42.683v-3.03c0-0.58-0.19-0.931-0.817-0.931c-0.418,0-0.694,0.266-0.855,0.626
			c-0.171,0.39-0.161,0.902-0.161,1.32v2.015h-1.188v-4.94h0.997l0.086,0.637c0.294-0.522,0.884-0.76,1.454-0.76
			c1.054,0,1.671,0.741,1.671,1.767v3.297H28.163z"/>
		<path fill="#58595B" d="M32.535,42.75c-0.998,0-1.492-0.57-1.492-1.521v-2.507H30.14v-0.979h0.902v-1.254l1.188-0.295v1.549h1.245
			v0.979H32.23v2.402c0,0.381,0.17,0.541,0.551,0.541c0.247,0,0.446-0.009,0.77-0.046v0.997
			C33.218,42.702,32.886,42.75,32.535,42.75z"/>
		<path fill="#58595B" d="M38.634,40.583h-3.307c-0.009,0.381,0.124,0.741,0.361,0.969c0.171,0.161,0.409,0.304,0.731,0.304
			c0.342,0,0.551-0.065,0.722-0.236c0.104-0.105,0.19-0.238,0.237-0.419h1.141c-0.028,0.295-0.229,0.685-0.418,0.912
			c-0.418,0.495-1.036,0.693-1.663,0.693c-0.674,0-1.168-0.236-1.558-0.608c-0.494-0.474-0.76-1.168-0.76-1.976
			c0-0.788,0.238-1.491,0.712-1.976c0.371-0.381,0.903-0.627,1.577-0.627c0.731,0,1.397,0.293,1.805,0.911
			c0.361,0.542,0.447,1.103,0.428,1.72C38.644,40.25,38.634,40.479,38.634,40.583z M37.152,38.854
			c-0.162-0.171-0.408-0.284-0.751-0.284c-0.361,0-0.655,0.152-0.826,0.379c-0.171,0.219-0.248,0.447-0.257,0.77h2.138
			C37.447,39.348,37.342,39.063,37.152,38.854z"/>
		<path fill="#58595B" d="M41.077,42.74c-0.808,0-1.349-0.39-1.349-1.329v-5.597h1.198v5.396c0,0.285,0.066,0.476,0.475,0.476
			c0.104,0,0.133-0.01,0.2-0.01v0.999C41.362,42.721,41.315,42.74,41.077,42.74z"/>
		<path fill="#58595B" d="M43.947,42.74c-0.808,0-1.349-0.39-1.349-1.329v-5.597h1.197v5.396c0,0.285,0.066,0.476,0.475,0.476
			c0.104,0,0.133-0.01,0.2-0.01v0.999C44.232,42.721,44.185,42.74,43.947,42.74z"/>
		<path fill="#58595B" d="M45.478,37.059v-1.227h1.273v1.227H45.478z M45.515,42.683v-4.94h1.207v4.94H45.515z"/>
		<path fill="#58595B" d="M50.181,44.992c-0.599,0-1.235-0.048-1.749-0.408c-0.38-0.267-0.599-0.618-0.599-1.083
			c0-0.428,0.209-0.817,0.589-1.007c-0.314-0.172-0.495-0.522-0.495-0.847c0-0.418,0.19-0.749,0.59-0.997
			c-0.305-0.304-0.495-0.712-0.495-1.216c0-1.178,0.913-1.814,2.024-1.814c0.408,0,0.798,0.114,1.121,0.304
			c0.209-0.428,0.589-0.617,1.007-0.617c0.076,0,0.247,0,0.322,0.02v0.921c-0.028,0-0.066-0.01-0.095-0.01
			c-0.275,0-0.522,0.076-0.598,0.313c0.161,0.266,0.256,0.561,0.256,0.895c0,1.129-0.95,1.794-2.014,1.794
			c-0.275,0-0.551-0.047-0.798-0.133c-0.114,0.066-0.247,0.189-0.247,0.352c0,0.294,0.295,0.36,0.542,0.36h0.817
			c0.494,0,1.14,0.01,1.605,0.334c0.427,0.294,0.599,0.712,0.599,1.187C52.565,44.641,51.283,44.992,50.181,44.992z M50.266,42.759
			h-0.931c-0.256,0.076-0.447,0.294-0.447,0.607c0,0.627,0.779,0.685,1.246,0.685c0.474,0,1.311-0.028,1.311-0.685
			C51.444,42.759,50.713,42.759,50.266,42.759z M50.048,38.512c-0.541,0-0.875,0.39-0.875,0.922s0.333,0.912,0.875,0.912
			c0.542,0,0.874-0.38,0.874-0.912S50.589,38.512,50.048,38.512z"/>
		<path fill="#58595B" d="M57.526,40.583H54.22c-0.009,0.381,0.123,0.741,0.361,0.969c0.171,0.161,0.409,0.304,0.731,0.304
			c0.343,0,0.551-0.065,0.722-0.236c0.104-0.105,0.19-0.238,0.238-0.419h1.14c-0.029,0.295-0.229,0.685-0.418,0.912
			c-0.418,0.495-1.036,0.693-1.663,0.693c-0.674,0-1.168-0.236-1.558-0.608c-0.495-0.474-0.76-1.168-0.76-1.976
			c0-0.788,0.238-1.491,0.712-1.976c0.371-0.381,0.903-0.627,1.578-0.627c0.731,0,1.396,0.293,1.805,0.911
			c0.361,0.542,0.447,1.103,0.428,1.72C57.536,40.25,57.526,40.479,57.526,40.583z M56.044,38.854
			c-0.162-0.171-0.408-0.284-0.75-0.284c-0.361,0-0.656,0.152-0.827,0.379c-0.171,0.219-0.247,0.447-0.256,0.77h2.138
			C56.339,39.348,56.234,39.063,56.044,38.854z"/>
		<path fill="#58595B" d="M61.669,42.683v-3.03c0-0.58-0.19-0.931-0.817-0.931c-0.418,0-0.693,0.266-0.855,0.626
			c-0.171,0.39-0.162,0.902-0.162,1.32v2.015h-1.188v-4.94h0.998l0.085,0.637c0.295-0.522,0.884-0.76,1.454-0.76
			c1.055,0,1.672,0.741,1.672,1.767v3.297H61.669z"/>
		<path fill="#58595B" d="M67.875,42.008c-0.342,0.428-0.941,0.779-1.691,0.779s-1.378-0.361-1.72-0.779
			c-0.371-0.465-0.542-1.083-0.542-1.806c0-0.721,0.171-1.339,0.542-1.804c0.342-0.419,0.969-0.779,1.72-0.779
			s1.349,0.351,1.691,0.779c0.228,0.294,0.361,0.684,0.379,1.073h-1.168c-0.009-0.18-0.066-0.333-0.143-0.457
			c-0.142-0.218-0.399-0.37-0.76-0.37c-0.324,0-0.561,0.134-0.722,0.304c-0.285,0.314-0.333,0.789-0.333,1.254
			c0,0.466,0.048,0.931,0.333,1.245c0.161,0.172,0.398,0.313,0.722,0.313c0.361,0,0.618-0.151,0.76-0.37
			c0.076-0.123,0.133-0.275,0.143-0.456h1.168C68.236,41.325,68.103,41.713,67.875,42.008z"/>
		<path fill="#58595B" d="M73.481,40.583h-3.306c-0.01,0.381,0.124,0.741,0.361,0.969c0.171,0.161,0.408,0.304,0.732,0.304
			c0.342,0,0.551-0.065,0.722-0.236c0.104-0.105,0.19-0.238,0.238-0.419h1.14c-0.029,0.295-0.228,0.685-0.418,0.912
			c-0.418,0.495-1.036,0.693-1.663,0.693c-0.674,0-1.168-0.236-1.558-0.608c-0.494-0.474-0.76-1.168-0.76-1.976
			c0-0.788,0.237-1.491,0.712-1.976c0.371-0.381,0.902-0.627,1.577-0.627c0.731,0,1.397,0.293,1.806,0.911
			c0.361,0.542,0.446,1.103,0.427,1.72C73.491,40.25,73.481,40.479,73.481,40.583z M71.999,38.854
			c-0.161-0.171-0.408-0.284-0.75-0.284c-0.361,0-0.656,0.152-0.827,0.379c-0.171,0.219-0.247,0.447-0.257,0.77h2.138
			C72.294,39.348,72.189,39.063,71.999,38.854z"/>
		<path fill="#58595B" d="M74.337,42.683v-1.482h1.444v1.482H74.337z"/>
		<path fill="#58595B" d="M83.325,42.066c-0.38,0.408-1.025,0.617-1.69,0.617h-2.718v-6.736h2.689c0.628,0,1.272,0.209,1.644,0.618
			c0.266,0.294,0.438,0.637,0.438,1.122c0,0.645-0.343,1.262-0.97,1.49c0.693,0.229,1.121,0.912,1.121,1.625
			C83.839,41.343,83.62,41.751,83.325,42.066z M81.606,36.698h-1.863v2.118h1.892c0.702,0,1.188-0.313,1.188-1.064
			C82.822,37.049,82.252,36.698,81.606,36.698z M81.654,39.558h-1.911v2.346h1.892c0.74,0,1.339-0.36,1.339-1.159
			C82.974,39.995,82.365,39.558,81.654,39.558z"/>
		<path fill="#58595B" d="M89.066,40.546h-3.402c0,0.436,0.172,0.911,0.466,1.205c0.219,0.22,0.513,0.344,0.884,0.344
			c0.38,0,0.692-0.105,0.893-0.314c0.133-0.134,0.219-0.267,0.285-0.522h0.789c-0.067,0.475-0.353,0.921-0.742,1.188
			c-0.341,0.229-0.768,0.36-1.225,0.36c-0.675,0-1.226-0.284-1.597-0.722c-0.399-0.465-0.598-1.103-0.598-1.786
			c0-0.58,0.104-1.093,0.37-1.538c0.341-0.58,0.979-1.009,1.814-1.009c0.617,0,1.111,0.238,1.464,0.618
			c0.389,0.428,0.617,1.045,0.608,1.691L89.066,40.546z M87.954,38.875c-0.2-0.268-0.522-0.439-0.95-0.439
			c-0.874,0-1.302,0.713-1.32,1.417h2.564C88.248,39.491,88.144,39.129,87.954,38.875z"/>
		<path fill="#58595B" d="M91.916,42.75c-1.037,0-1.32-0.654-1.32-1.302V38.57h-0.932v-0.693h0.932V36.65l0.808-0.19v1.417h1.426
			v0.693h-1.426v2.783c0,0.465,0.198,0.655,0.646,0.655c0.342,0,0.827-0.085,0.827-0.085v0.693
			C92.656,42.675,92.362,42.75,91.916,42.75z"/>
		<path fill="#58595B" d="M95.574,42.75c-1.035,0-1.32-0.654-1.32-1.302V38.57h-0.931v-0.693h0.931V36.65l0.808-0.19v1.417h1.425
			v0.693h-1.425v2.783c0,0.465,0.2,0.655,0.646,0.655c0.342,0,0.826-0.085,0.826-0.085v0.693
			C96.315,42.675,96.021,42.75,95.574,42.75z"/>
		<path fill="#58595B" d="M101.476,40.546h-3.401c0,0.436,0.171,0.911,0.466,1.205c0.218,0.22,0.513,0.344,0.884,0.344
			c0.379,0,0.692-0.105,0.894-0.314c0.132-0.134,0.217-0.267,0.283-0.522h0.79c-0.067,0.475-0.352,0.921-0.742,1.188
			c-0.341,0.229-0.769,0.36-1.225,0.36c-0.675,0-1.227-0.284-1.597-0.722c-0.399-0.465-0.598-1.103-0.598-1.786
			c0-0.58,0.103-1.093,0.37-1.538c0.341-0.58,0.978-1.009,1.814-1.009c0.616,0,1.11,0.238,1.463,0.618
			c0.389,0.428,0.618,1.045,0.608,1.691L101.476,40.546z M100.364,38.875c-0.201-0.268-0.522-0.439-0.95-0.439
			c-0.874,0-1.302,0.713-1.321,1.417h2.565C100.658,39.491,100.553,39.129,100.364,38.875z"/>
		<path fill="#58595B" d="M104.992,38.626c-0.38,0-0.694,0.171-0.912,0.379c-0.39,0.372-0.438,1.036-0.438,1.541v2.137h-0.798
			v-4.807h0.712l0.067,0.846c0.247-0.59,0.826-0.875,1.435-0.875c0.123,0,0.256,0.01,0.38,0.029v0.788
			C105.297,38.635,105.135,38.626,104.992,38.626z"/>
		<path fill="#58595B" d="M113.098,41.961c-0.448,0.465-1.122,0.722-1.891,0.722h-2.623v-6.736h2.623
			c0.769,0,1.442,0.257,1.891,0.723c0.692,0.711,0.788,1.71,0.788,2.641S113.79,41.249,113.098,41.961z M112.156,37.429
			c-0.228-0.228-0.562-0.38-0.949-0.38h-1.397v4.532h1.397c0.388,0,0.722-0.151,0.949-0.381c0.476-0.475,0.484-1.272,0.484-1.891
			C112.641,38.693,112.632,37.903,112.156,37.429z"/>
		<path fill="#58595B" d="M119.208,40.583h-3.307c-0.01,0.381,0.124,0.741,0.361,0.969c0.17,0.161,0.408,0.304,0.731,0.304
			c0.341,0,0.551-0.065,0.723-0.236c0.104-0.105,0.188-0.238,0.236-0.419h1.14c-0.027,0.295-0.227,0.685-0.417,0.912
			c-0.419,0.495-1.036,0.693-1.663,0.693c-0.675,0-1.168-0.236-1.558-0.608c-0.493-0.474-0.761-1.168-0.761-1.976
			c0-0.788,0.238-1.491,0.713-1.976c0.37-0.381,0.902-0.627,1.577-0.627c0.732,0,1.396,0.293,1.805,0.911
			c0.361,0.542,0.447,1.103,0.429,1.72C119.218,40.25,119.208,40.479,119.208,40.583z M117.726,38.854
			c-0.161-0.171-0.409-0.284-0.751-0.284c-0.36,0-0.655,0.152-0.825,0.379c-0.172,0.219-0.248,0.447-0.258,0.77h2.138
			C118.02,39.348,117.915,39.063,117.726,38.854z"/>
		<path fill="#58595B" d="M123.94,42.008c-0.343,0.428-0.94,0.779-1.691,0.779s-1.378-0.361-1.72-0.779
			c-0.37-0.465-0.542-1.083-0.542-1.806c0-0.721,0.172-1.339,0.542-1.804c0.342-0.419,0.969-0.779,1.72-0.779
			s1.349,0.351,1.691,0.779c0.229,0.294,0.36,0.684,0.38,1.073h-1.169c-0.01-0.18-0.066-0.333-0.143-0.457
			c-0.142-0.218-0.399-0.37-0.76-0.37c-0.323,0-0.561,0.134-0.723,0.304c-0.284,0.314-0.331,0.789-0.331,1.254
			c0,0.466,0.047,0.931,0.331,1.245c0.162,0.172,0.399,0.313,0.723,0.313c0.36,0,0.618-0.151,0.76-0.37
			c0.076-0.123,0.133-0.275,0.143-0.456h1.169C124.301,41.325,124.169,41.713,123.94,42.008z"/>
		<path fill="#58595B" d="M125.357,37.059v-1.227h1.272v1.227H125.357z M125.396,42.683v-4.94h1.206v4.94H125.396z"/>
		<path fill="#58595B" d="M131.505,42.236c-0.398,0.4-1.016,0.57-1.691,0.57c-0.627,0-1.188-0.179-1.596-0.57
			c-0.286-0.274-0.522-0.684-0.522-1.148h1.111c0,0.218,0.113,0.456,0.265,0.578c0.19,0.152,0.409,0.22,0.752,0.22
			c0.398,0,1.007-0.086,1.007-0.627c0-0.285-0.189-0.476-0.494-0.523c-0.437-0.066-0.93-0.095-1.368-0.188
			c-0.674-0.144-1.13-0.694-1.13-1.321c0-0.503,0.208-0.855,0.504-1.112c0.36-0.313,0.883-0.493,1.5-0.493
			c0.59,0,1.188,0.19,1.549,0.58c0.266,0.283,0.437,0.654,0.437,1.016h-1.131c0-0.189-0.084-0.341-0.198-0.465
			c-0.144-0.144-0.4-0.229-0.646-0.229c-0.172,0-0.332,0-0.513,0.075c-0.21,0.086-0.381,0.267-0.381,0.523
			c0,0.352,0.304,0.455,0.57,0.493c0.447,0.057,0.569,0.066,1.055,0.144c0.779,0.123,1.349,0.618,1.349,1.396
			C131.932,41.628,131.761,41.981,131.505,42.236z"/>
		<path fill="#58595B" d="M133.026,37.059v-1.227h1.272v1.227H133.026z M133.064,42.683v-4.94h1.206v4.94H133.064z"/>
		<path fill="#58595B" d="M139.458,42.038c-0.341,0.418-0.978,0.769-1.728,0.769c-0.751,0-1.388-0.351-1.729-0.769
			c-0.371-0.465-0.579-0.988-0.579-1.825c0-0.835,0.208-1.358,0.579-1.823c0.342-0.419,0.979-0.77,1.729-0.77
			c0.75,0,1.387,0.351,1.728,0.77c0.371,0.465,0.58,0.988,0.58,1.823C140.038,41.049,139.829,41.573,139.458,42.038z M138.48,38.967
			c-0.162-0.17-0.428-0.312-0.75-0.312c-0.323,0-0.59,0.143-0.751,0.312c-0.286,0.315-0.352,0.78-0.352,1.245
			c0,0.466,0.065,0.932,0.352,1.245c0.161,0.171,0.428,0.313,0.751,0.313c0.322,0,0.588-0.143,0.75-0.313
			c0.285-0.313,0.352-0.779,0.352-1.245C138.832,39.748,138.766,39.283,138.48,38.967z"/>
		<path fill="#58595B" d="M144.201,42.683v-3.03c0-0.58-0.19-0.931-0.817-0.931c-0.418,0-0.693,0.266-0.855,0.626
			c-0.171,0.39-0.162,0.902-0.162,1.32v2.015h-1.187v-4.94h0.998l0.085,0.637c0.295-0.522,0.884-0.76,1.453-0.76
			c1.055,0,1.673,0.741,1.673,1.767v3.297H144.201z"/>
		<path fill="#58595B" d="M150.206,42.236c-0.398,0.4-1.016,0.57-1.69,0.57c-0.627,0-1.188-0.179-1.596-0.57
			c-0.286-0.274-0.523-0.684-0.523-1.148h1.111c0,0.218,0.114,0.456,0.267,0.578c0.19,0.152,0.407,0.22,0.751,0.22
			c0.398,0,1.007-0.086,1.007-0.627c0-0.285-0.19-0.476-0.493-0.523c-0.438-0.066-0.932-0.095-1.37-0.188
			c-0.674-0.144-1.129-0.694-1.129-1.321c0-0.503,0.208-0.855,0.503-1.112c0.361-0.313,0.884-0.493,1.5-0.493
			c0.59,0,1.189,0.19,1.551,0.58c0.264,0.283,0.436,0.654,0.436,1.016h-1.13c0-0.189-0.086-0.341-0.199-0.465
			c-0.143-0.144-0.4-0.229-0.646-0.229c-0.171,0-0.333,0-0.514,0.075c-0.209,0.086-0.381,0.267-0.381,0.523
			c0,0.352,0.306,0.455,0.57,0.493c0.447,0.057,0.57,0.066,1.055,0.144c0.78,0.123,1.351,0.618,1.351,1.396
			C150.635,41.628,150.463,41.981,150.206,42.236z"/>
		<path fill="#58595B" d="M151.622,42.683v-1.482h1.443v1.482H151.622z"/>
		<g>
			<path fill="#58595B" d="M151.31,36.783v0.896h-0.29v-0.896h-0.333v-0.257h0.957v0.257H151.31z M152.78,37.679v-0.775
				l-0.237,0.744h-0.219l-0.238-0.74v0.771H151.8v-1.153h0.408l0.232,0.729l0.229-0.729h0.396v1.153H152.78z"/>
		</g>
	</g>
</g>
</svg>
